HIERARCHY
ROOT character_B_root
{
	OFFSET 0.000000 0.000000 0.000000
	CHANNELS 6 Xposition Yposition Zposition Xrotation Yrotation Zrotation
	JOINT character_B_pelvis
	{
		OFFSET 0.000000 0.000000 0.000000
		CHANNELS 3 Xrotation Yrotation Zrotation
		JOINT character_B_spine
		{
			OFFSET -0.005949 0.551378 0.000000
			CHANNELS 3 Xrotation Yrotation Zrotation
			JOINT character_B_head
			{
				OFFSET -0.011221 0.241134 0.000000
				CHANNELS 3 Xrotation Yrotation Zrotation
				JOINT character_B_nose
				{
					OFFSET -0.004159 -0.142665 -0.000261
					CHANNELS 3 Xrotation Yrotation Zrotation
					End Site
					{
						OFFSET 0.000000 0.050000 0.000000
					}
				}
			}
			JOINT character_B_left_shoulder
			{
				OFFSET 0.093188 -0.066956 0.092540
				CHANNELS 3 Xrotation Yrotation Zrotation
				JOINT character_B_left_elbow
				{
					OFFSET 0.026481 -0.252143 -0.089385
					CHANNELS 3 Xrotation Yrotation Zrotation
					JOINT character_B_left_wrist
					{
						OFFSET -0.001396 -0.164778 -0.154831
						CHANNELS 3 Xrotation Yrotation Zrotation
						End Site
						{
							OFFSET 0.000000 0.050000 0.000000
						}
					}
				}
			}
			JOINT character_B_right_shoulder
			{
				OFFSET -0.052646 -0.054758 0.152841
				CHANNELS 3 Xrotation Yrotation Zrotation
				JOINT character_B_right_elbow
				{
					OFFSET -0.025750 -0.252567 -0.055740
					CHANNELS 3 Xrotation Yrotation Zrotation
					JOINT character_B_right_wrist
					{
						OFFSET 0.022565 -0.178373 -0.161123
						CHANNELS 3 Xrotation Yrotation Zrotation
						End Site
						{
							OFFSET 0.000000 0.050000 0.000000
						}
					}
				}
			}
		}
		JOINT character_B_left_hip
		{
			OFFSET 0.053047 -0.014449 0.105832
			CHANNELS 3 Xrotation Yrotation Zrotation
			JOINT character_B_left_knee
			{
				OFFSET 0.010852 -0.388560 0.128200
				CHANNELS 3 Xrotation Yrotation Zrotation
				JOINT character_B_left_ankle
				{
					OFFSET -0.005897 -0.374408 0.161260
					CHANNELS 3 Xrotation Yrotation Zrotation
					JOINT character_B_left_big_toe
					{
						OFFSET 0.012109 -0.098215 0.034452
						CHANNELS 3 Xrotation Yrotation Zrotation
						End Site
						{
							OFFSET 0.000000 0.050000 0.000000
						}
					}
					JOINT character_B_left_small_toe
					{
						OFFSET 0.041617 -0.095586 0.019459
						CHANNELS 3 Xrotation Yrotation Zrotation
						End Site
						{
							OFFSET 0.000000 0.050000 0.000000
						}
					}
					JOINT character_B_left_heel
					{
						OFFSET -0.014884 -0.052778 0.025198
						CHANNELS 3 Xrotation Yrotation Zrotation
						End Site
						{
							OFFSET 0.000000 0.050000 0.000000
						}
					}
				}
			}
		}
		JOINT character_B_right_hip
		{
			OFFSET -0.043381 -0.011457 0.270438
			CHANNELS 3 Xrotation Yrotation Zrotation
			JOINT character_B_right_knee
			{
				OFFSET 0.014721 -0.382947 0.164918
				CHANNELS 3 Xrotation Yrotation Zrotation
				JOINT character_B_right_ankle
				{
					OFFSET 0.029970 -0.363014 0.179744
					CHANNELS 3 Xrotation Yrotation Zrotation
					JOINT character_B_right_big_toe
					{
						OFFSET 0.007171 -0.100675 0.041990
						CHANNELS 3 Xrotation Yrotation Zrotation
						End Site
						{
							OFFSET 0.000000 0.050000 0.000000
						}
					}
					JOINT character_B_right_small_toe
					{
						OFFSET -0.022736 -0.093093 0.035638
						CHANNELS 3 Xrotation Yrotation Zrotation
						End Site
						{
							OFFSET 0.000000 0.050000 0.000000
						}
					}
					JOINT character_B_right_heel
					{
						OFFSET 0.012696 -0.052984 0.028899
						CHANNELS 3 Xrotation Yrotation Zrotation
						End Site
						{
							OFFSET 0.000000 0.050000 0.000000
						}
					}
				}
			}
		}
	}
}
MOTION
Frames: 12
Frame Time: 0.03333333
0.436867 -0.227358 1.152238 0.000000 0.000000 0.000000 1.806175 4.348103 -3.639913 31.859232 -21.983787 10.936058 -30.929581 19.915282 12.644582 0.000000 0.000000 0.000000 -19.697902 19.935205 9.481045 -3.459511 9.407340 -17.261410 -0.000000 0.000000 -0.000000 -12.257713 20.170333 -21.701588 -15.130575 -10.133117 25.796094 0.000000 0.000000 0.000000 -10.325819 -4.537630 5.365634 -31.283147 -0.252888 -33.081679 -4.800235 55.038371 0.403322 -0.000000 0.000000 -0.000000 -0.000000 0.000000 -0.000000 -0.000000 0.000000 -0.000000 2.357898 -4.955495 1.894954 4.160246 -3.922875 -7.572058 -37.412973 -6.436571 6.624628 -0.000000 0.000000 -0.000000 -0.000000 0.000000 -0.000000 -0.000000 0.000000 -0.000000
0.479565 -0.230819 1.189239 0.000000 0.000000 0.000000 1.970540 4.657755 -3.314762 31.465001 -22.399623 10.915099 -25.719004 20.501720 11.026992 0.000000 0.000000 -0.000000 -18.678370 19.892240 9.755360 -4.025207 9.683313 -18.092297 0.000000 0.000000 -0.000000 -11.318747 19.927056 -21.858973 -16.430596 -10.551009 25.557694 0.000000 0.000000 -0.000000 -9.158566 -4.214530 6.817949 -24.429205 -1.442866 -25.611161 -10.656337 35.525625 5.600221 -0.000000 0.000000 -0.000000 -0.000000 0.000000 -0.000000 -0.000000 0.000000 -0.000000 3.082379 -5.687426 0.658560 4.155707 -4.857811 -9.065451 -34.662330 -17.391617 16.228465 0.000000 0.000000 0.000000 0.000000 0.000000 0.000000 0.000000 0.000000 0.000000
0.524524 -0.239165 1.211067 0.000000 0.000000 0.000000 2.167214 4.826666 -2.818902 30.991684 -22.606481 10.706313 -21.994905 20.732931 10.312978 -0.000000 0.000000 -0.000000 -18.447584 19.520907 10.367409 -3.343349 9.654384 -18.850541 -0.000000 0.000000 -0.000000 -10.735366 19.563899 -21.116727 -16.816356 -10.331805 24.731579 -0.000000 0.000000 -0.000000 -9.263501 -4.110088 7.002890 -15.917729 -2.046847 -17.845471 -13.042413 18.460718 7.561703 -0.000000 0.000000 -0.000000 -0.000000 0.000000 -0.000000 -0.000000 0.000000 -0.000000 2.165267 -6.601682 -1.312443 5.349649 -5.462711 -10.169936 -29.882678 -24.416920 25.091182 0.000000 0.000000 0.000000 0.000000 0.000000 0.000000 0.000000 0.000000 0.000000
0.567899 -0.245965 1.201881 0.000000 0.000000 0.000000 2.565900 4.635562 -2.255251 30.379633 -22.041776 10.173862 -18.068617 20.390490 8.861255 -0.000000 0.000000 -0.000000 -18.687785 18.563836 11.256421 -3.264438 9.515723 -19.297709 0.000000 0.000000 0.000000 -10.263026 18.623666 -19.246544 -16.246022 -8.272943 22.149389 -0.000000 0.000000 0.000000 -10.345852 -3.742044 7.015247 -8.666288 -2.162406 -13.250166 -14.304595 9.676998 8.922589 0.000000 0.000000 0.000000 0.000000 0.000000 0.000000 0.000000 0.000000 0.000000 -0.355529 -7.364982 -3.964221 7.206184 -5.539241 -10.652002 -27.240376 -22.507647 28.105716 -0.000000 0.000000 0.000000 -0.000000 0.000000 0.000000 -0.000000 0.000000 0.000000
0.598039 -0.251712 1.164828 0.000000 0.000000 0.000000 2.976686 4.669796 -1.865231 30.088734 -21.621320 10.121175 -16.275203 20.010076 8.291432 -0.000000 0.000000 0.000000 -18.460829 17.936634 11.469553 -3.230303 8.841397 -19.139508 0.000000 0.000000 0.000000 -9.602982 17.724553 -18.068703 -14.807798 -5.971079 20.033256 0.000000 0.000000 -0.000000 -11.656128 -3.679737 6.980502 -3.781469 -2.038346 -10.532841 -12.135878 4.169360 8.962152 -0.000000 0.000000 -0.000000 -0.000000 0.000000 -0.000000 -0.000000 0.000000 -0.000000 -3.140691 -7.926058 -5.774649 8.475123 -5.765829 -11.481913 -22.976559 -22.305605 31.442817 0.000000 0.000000 0.000000 0.000000 0.000000 0.000000 0.000000 0.000000 0.000000
0.629541 -0.253946 1.120695 0.000000 0.000000 0.000000 3.391488 4.765022 -1.097663 29.666727 -21.534761 9.952282 -14.629600 19.784899 7.976903 -0.000000 0.000000 -0.000000 -17.482502 17.458616 11.869347 -5.472615 9.027264 -19.586751 -0.000000 0.000000 -0.000000 -8.252976 16.802776 -17.394020 -14.784184 -4.440560 18.119805 -0.000000 0.000000 -0.000000 -12.826641 -3.758187 5.778664 -0.744655 -1.889009 -8.733430 -10.222979 -1.655791 9.273807 -0.000000 0.000000 -0.000000 -0.000000 0.000000 -0.000000 -0.000000 0.000000 -0.000000 -4.494722 -8.384109 -7.665478 8.721705 -6.012850 -12.109108 -36.381998 7.506275 15.995476 -0.000000 0.000000 0.000000 -0.000000 0.000000 0.000000 -0.000000 0.000000 0.000000
0.666083 -0.254428 1.103513 0.000000 0.000000 0.000000 3.507346 4.792498 -0.054384 29.077035 -21.356200 9.234945 -13.897024 19.263696 7.991272 0.000000 0.000000 -0.000000 -16.024800 16.702924 12.677163 -8.272428 9.540870 -20.313502 0.000000 0.000000 -0.000000 -6.792916 15.721368 -17.045873 -15.328537 -4.083211 17.417176 0.000000 0.000000 -0.000000 -13.026845 -3.745945 3.937344 1.978066 -1.917030 -7.497923 -10.903316 -3.568742 10.341875 0.000000 0.000000 -0.000000 0.000000 0.000000 -0.000000 0.000000 0.000000 -0.000000 -5.406192 -8.415475 -9.079525 8.258405 -6.440938 -12.964014 -38.308375 21.295501 8.634813 0.000000 0.000000 -0.000000 0.000000 0.000000 -0.000000 0.000000 0.000000 -0.000000
0.708293 -0.254589 1.119395 0.000000 0.000000 0.000000 3.746807 4.563282 0.884940 28.358470 -20.864290 8.363157 -15.019729 18.673207 8.901959 0.000000 0.000000 -0.000000 -15.556517 15.782275 13.576927 -10.325369 9.996758 -20.645712 0.000000 0.000000 0.000000 -5.588755 14.659868 -16.673616 -16.371655 -4.121756 16.935438 0.000000 0.000000 0.000000 -13.261327 -3.596600 1.830891 4.516632 -1.709364 -5.884683 -13.634272 -4.337459 11.033785 -0.000000 0.000000 -0.000000 -0.000000 0.000000 -0.000000 -0.000000 0.000000 -0.000000 -5.922356 -7.853666 -9.476169 4.220566 -5.939379 -11.758431 -29.282858 22.257781 3.377571 -0.000000 0.000000 0.000000 -0.000000 0.000000 0.000000 -0.000000 0.000000 0.000000
0.744792 -0.254442 1.152943 0.000000 0.000000 0.000000 4.155365 4.819379 1.517493 27.532358 -20.938652 7.906090 -16.166420 18.243295 9.387396 -0.000000 0.000000 0.000000 -15.353255 15.087439 14.495770 -11.686006 10.535906 -21.049536 -0.000000 0.000000 -0.000000 -4.974036 14.072934 -16.266082 -17.597930 -4.806208 16.941564 0.000000 0.000000 -0.000000 -13.636852 -3.942495 0.047650 6.475763 -1.419991 -4.527981 -16.176189 -4.583544 10.706498 -0.000000 0.000000 0.000000 -0.000000 0.000000 0.000000 -0.000000 0.000000 0.000000 -6.216535 -7.658057 -9.214660 -0.020011 -5.503657 -10.550330 -19.231474 22.613091 -3.041878 0.000000 0.000000 0.000000 0.000000 0.000000 0.000000 0.000000 0.000000 0.000000
0.780649 -0.258829 1.185995 0.000000 0.000000 0.000000 4.650325 5.141386 2.023700 26.440974 -21.071654 7.775767 -17.880526 18.046341 11.332310 0.000000 0.000000 -0.000000 -16.307671 14.390180 14.737491 -11.406594 10.503095 -20.707132 -0.000000 0.000000 -0.000000 -4.974006 13.802313 -15.764585 -18.005758 -5.403591 16.726815 -0.000000 0.000000 -0.000000 -14.834638 -4.295249 -1.420007 8.557699 -1.264467 -3.838115 -18.111769 -4.748301 9.629028 -0.000000 0.000000 -0.000000 -0.000000 0.000000 -0.000000 -0.000000 0.000000 -0.000000 -7.409655 -7.128304 -8.070114 -2.936885 -5.117169 -9.852628 -13.466767 27.461232 -8.734784 -0.000000 0.000000 -0.000000 -0.000000 0.000000 -0.000000 -0.000000 0.000000 -0.000000
0.817382 -0.263134 1.203385 0.000000 0.000000 0.000000 5.422563 5.452057 2.158296 25.166857 -21.238661 7.716150 -21.784090 17.682382 13.247731 -0.000000 0.000000 -0.000000 -17.131634 14.083942 14.298460 -10.837535 9.633675 -19.358566 0.000000 0.000000 0.000000 -6.544854 14.143919 -14.848173 -17.065072 -5.792491 16.264469 -0.000000 0.000000 0.000000 -15.947609 -4.568309 -1.978340 9.484887 -1.341132 -3.919854 -19.659115 -7.968001 8.509482 0.000000 0.000000 -0.000000 0.000000 0.000000 -0.000000 0.000000 0.000000 -0.000000 -8.191775 -6.504203 -6.145910 -4.129715 -4.102701 -7.875379 -18.708333 26.658295 -6.407453 0.000000 0.000000 0.000000 0.000000 0.000000 0.000000 0.000000 0.000000 0.000000
0.856405 -0.266956 1.202109 0.000000 0.000000 0.000000 5.801849 5.375302 2.465774 24.501518 -21.086423 7.122434 -23.010837 17.317067 13.951287 0.000000 0.000000 -0.000000 -17.756287 13.836397 13.914115 -10.634285 8.758329 -18.013977 0.000000 0.000000 -0.000000 -8.711554 14.473570 -13.711028 -15.908761 -6.673877 16.446247 0.000000 0.000000 0.000000 -16.367741 -4.471750 -2.662055 9.189203 -1.314920 -3.902494 -20.427082 -11.869520 7.465606 0.000000 0.000000 0.000000 0.000000 0.000000 0.000000 0.000000 0.000000 0.000000 -8.892842 -5.722055 -4.941275 -2.638356 -2.761784 -5.229054 -25.125510 24.492160 -0.888397 -0.000000 0.000000 0.000000 -0.000000 0.000000 0.000000 -0.000000 0.000000 0.000000
